<svg xmlns="http://www.w3.org/2000/svg" xmlns:xlink="http://www.w3.org/1999/xlink" width="153" zoomAndPan="magnify" viewBox="0 0 114.75 30.000001" height="40" preserveAspectRatio="xMidYMid meet" version="1.2"><defs/><g id="bd607ed7ac"><g style="fill:#ffffff;fill-opacity:1;"><g transform="translate(22.134638, 24.677421)"><path style="stroke:none" d="M -0.640625 0 C -0.828125 0 -0.945312 -0.0351562 -1 -0.109375 C -1.0625 -0.179688 -1.09375 -0.253906 -1.09375 -0.328125 C -1.09375 -0.554688 -0.910156 -0.703125 -0.546875 -0.765625 L -0.0625 -0.859375 C 0.625 -0.972656 1.191406 -1.164062 1.640625 -1.4375 C 2.085938 -1.71875 2.503906 -2.164062 2.890625 -2.78125 L 7.625 -10.03125 C 7.78125 -10.269531 7.898438 -10.503906 7.984375 -10.734375 C 8.066406 -10.972656 8.066406 -11.285156 7.984375 -11.671875 L 6.21875 -19.90625 C 6.132812 -20.375 5.988281 -20.6875 5.78125 -20.84375 C 5.582031 -21.007812 5.351562 -21.113281 5.09375 -21.15625 L 4.546875 -21.25 C 4.210938 -21.3125 4.078125 -21.441406 4.140625 -21.640625 C 4.179688 -21.847656 4.375 -21.953125 4.71875 -21.953125 L 10 -21.953125 C 10.363281 -21.953125 10.523438 -21.847656 10.484375 -21.640625 C 10.421875 -21.441406 10.21875 -21.3125 9.875 -21.25 L 9.265625 -21.15625 C 8.898438 -21.09375 8.632812 -20.96875 8.46875 -20.78125 C 8.3125 -20.601562 8.273438 -20.3125 8.359375 -19.90625 L 9.8125 -13.265625 C 9.832031 -13.179688 9.878906 -13.128906 9.953125 -13.109375 C 10.023438 -13.085938 10.101562 -13.128906 10.1875 -13.234375 L 14.359375 -19.59375 C 14.640625 -20.039062 14.785156 -20.367188 14.796875 -20.578125 C 14.804688 -20.796875 14.628906 -20.945312 14.265625 -21.03125 L 13.46875 -21.21875 C 13.125 -21.300781 12.984375 -21.441406 13.046875 -21.640625 C 13.085938 -21.847656 13.289062 -21.953125 13.65625 -21.953125 L 18.375 -21.953125 C 18.769531 -21.953125 18.925781 -21.828125 18.84375 -21.578125 C 18.800781 -21.378906 18.617188 -21.25 18.296875 -21.1875 L 17.796875 -21.09375 C 17.273438 -20.988281 16.804688 -20.796875 16.390625 -20.515625 C 15.972656 -20.234375 15.5625 -19.785156 15.15625 -19.171875 L 10.703125 -12.40625 C 10.515625 -12.144531 10.390625 -11.875 10.328125 -11.59375 C 10.273438 -11.320312 10.296875 -10.953125 10.390625 -10.484375 L 12.21875 -2.046875 C 12.320312 -1.554688 12.476562 -1.238281 12.6875 -1.09375 C 12.90625 -0.957031 13.128906 -0.867188 13.359375 -0.828125 L 13.9375 -0.734375 C 14.195312 -0.710938 14.328125 -0.585938 14.328125 -0.359375 C 14.328125 -0.117188 14.125 0 13.71875 0 L 8.390625 0 C 8.078125 0 7.921875 -0.109375 7.921875 -0.328125 C 7.921875 -0.535156 8.113281 -0.671875 8.5 -0.734375 L 9.109375 -0.828125 C 9.472656 -0.890625 9.75 -1.007812 9.9375 -1.1875 C 10.125 -1.375 10.175781 -1.660156 10.09375 -2.046875 L 8.53125 -9.171875 C 8.507812 -9.296875 8.457031 -9.363281 8.375 -9.375 C 8.300781 -9.382812 8.222656 -9.335938 8.140625 -9.234375 L 3.71875 -2.34375 C 3.4375 -1.894531 3.289062 -1.5625 3.28125 -1.34375 C 3.269531 -1.132812 3.445312 -0.992188 3.8125 -0.921875 L 4.640625 -0.734375 C 4.898438 -0.671875 5.03125 -0.546875 5.03125 -0.359375 C 5.03125 -0.117188 4.835938 0 4.453125 0 Z M -0.640625 0 "/></g></g><g style="fill:#ffffff;fill-opacity:1;"><g transform="translate(38.748369, 24.677421)"><path style="stroke:none" d="M -0.578125 0 C -0.921875 0 -1.09375 -0.101562 -1.09375 -0.3125 C -1.09375 -0.507812 -0.929688 -0.78125 -0.609375 -1.125 L 4.390625 -6.859375 C 5.035156 -7.609375 5.75 -8.4375 6.53125 -9.34375 C 7.320312 -10.25 8.066406 -11.203125 8.765625 -12.203125 C 9.460938 -13.210938 10.039062 -14.226562 10.5 -15.25 C 10.957031 -16.28125 11.1875 -17.296875 11.1875 -18.296875 C 11.1875 -19.160156 10.945312 -19.835938 10.46875 -20.328125 C 9.988281 -20.816406 9.285156 -21.0625 8.359375 -21.0625 C 7.484375 -21.0625 6.632812 -20.757812 5.8125 -20.15625 C 4.988281 -19.5625 4.3125 -18.546875 3.78125 -17.109375 C 3.675781 -16.816406 3.515625 -16.671875 3.296875 -16.671875 C 3.148438 -16.671875 3.046875 -16.734375 2.984375 -16.859375 C 2.921875 -16.984375 2.921875 -17.132812 2.984375 -17.3125 C 3.410156 -18.53125 3.9375 -19.5 4.5625 -20.21875 C 5.195312 -20.945312 5.878906 -21.46875 6.609375 -21.78125 C 7.347656 -22.09375 8.082031 -22.25 8.8125 -22.25 C 10.207031 -22.25 11.316406 -21.875 12.140625 -21.125 C 12.960938 -20.375 13.375 -19.367188 13.375 -18.109375 C 13.375 -17.023438 13.085938 -15.960938 12.515625 -14.921875 C 11.953125 -13.890625 11.226562 -12.875 10.34375 -11.875 C 9.457031 -10.882812 8.535156 -9.921875 7.578125 -8.984375 C 6.628906 -8.054688 5.78125 -7.164062 5.03125 -6.3125 L 1.671875 -2.53125 C 1.515625 -2.34375 1.457031 -2.175781 1.5 -2.03125 C 1.550781 -1.894531 1.710938 -1.828125 1.984375 -1.828125 L 5.390625 -1.828125 C 6.179688 -1.828125 6.828125 -1.914062 7.328125 -2.09375 C 7.828125 -2.28125 8.265625 -2.601562 8.640625 -3.0625 C 9.015625 -3.519531 9.394531 -4.1875 9.78125 -5.0625 L 10.390625 -6.4375 C 10.492188 -6.65625 10.648438 -6.765625 10.859375 -6.765625 C 11.160156 -6.765625 11.257812 -6.582031 11.15625 -6.21875 L 9.515625 -0.578125 C 9.453125 -0.359375 9.335938 -0.207031 9.171875 -0.125 C 9.015625 -0.0390625 8.820312 0 8.59375 0 Z M -0.578125 0 "/></g></g><g style="fill:#ffffff;fill-opacity:1;"><g transform="translate(51.063866, 24.677421)"><path style="stroke:none" d="M 0.390625 0.25 C 0.0234375 0.300781 -0.15625 0.1875 -0.15625 -0.09375 C -0.15625 -0.195312 -0.125 -0.273438 -0.0625 -0.328125 C 0 -0.390625 0.128906 -0.453125 0.328125 -0.515625 C 3.722656 -1.472656 6.53125 -4.25 8.75 -8.84375 C 8.8125 -8.957031 8.8125 -9.050781 8.75 -9.125 C 8.6875 -9.195312 8.59375 -9.191406 8.46875 -9.109375 C 7.988281 -8.847656 7.378906 -8.71875 6.640625 -8.71875 C 5.378906 -8.71875 4.378906 -9.226562 3.640625 -10.25 C 2.898438 -11.28125 2.53125 -12.660156 2.53125 -14.390625 C 2.53125 -15.398438 2.710938 -16.375 3.078125 -17.3125 C 3.441406 -18.25 3.929688 -19.085938 4.546875 -19.828125 C 5.171875 -20.566406 5.875 -21.15625 6.65625 -21.59375 C 7.4375 -22.03125 8.253906 -22.25 9.109375 -22.25 C 10.367188 -22.25 11.351562 -21.71875 12.0625 -20.65625 C 12.78125 -19.601562 13.140625 -18.113281 13.140625 -16.1875 C 13.140625 -14.757812 12.90625 -13.320312 12.4375 -11.875 C 11.96875 -10.4375 11.320312 -9.046875 10.5 -7.703125 C 9.675781 -6.367188 8.722656 -5.144531 7.640625 -4.03125 C 6.566406 -2.925781 5.410156 -2 4.171875 -1.25 C 2.929688 -0.5 1.671875 0 0.390625 0.25 Z M 6.765625 -9.484375 C 7.617188 -9.484375 8.40625 -9.859375 9.125 -10.609375 C 9.851562 -11.359375 10.429688 -12.351562 10.859375 -13.59375 C 11.296875 -14.832031 11.515625 -16.164062 11.515625 -17.59375 C 11.515625 -18.832031 11.296875 -19.785156 10.859375 -20.453125 C 10.429688 -21.128906 9.847656 -21.46875 9.109375 -21.46875 C 8.503906 -21.46875 7.921875 -21.242188 7.359375 -20.796875 C 6.804688 -20.347656 6.3125 -19.738281 5.875 -18.96875 C 5.4375 -18.207031 5.09375 -17.347656 4.84375 -16.390625 C 4.601562 -15.441406 4.484375 -14.445312 4.484375 -13.40625 C 4.484375 -12.164062 4.6875 -11.203125 5.09375 -10.515625 C 5.5 -9.828125 6.054688 -9.484375 6.765625 -9.484375 Z M 6.765625 -9.484375 "/></g></g><g style="fill:#ffffff;fill-opacity:1;"><g transform="translate(62.46485, 24.677421)"><path style="stroke:none" d="M 1.890625 0.28125 C 1.460938 0.28125 1.113281 0.144531 0.84375 -0.125 C 0.582031 -0.40625 0.453125 -0.75 0.453125 -1.15625 C 0.453125 -1.6875 0.632812 -2.113281 1 -2.4375 C 1.375 -2.757812 1.765625 -2.921875 2.171875 -2.921875 C 2.578125 -2.921875 2.914062 -2.785156 3.1875 -2.515625 C 3.457031 -2.242188 3.59375 -1.90625 3.59375 -1.5 C 3.59375 -0.96875 3.410156 -0.535156 3.046875 -0.203125 C 2.679688 0.117188 2.296875 0.28125 1.890625 0.28125 Z M 1.890625 0.28125 "/></g></g><g style="fill:#ffffff;fill-opacity:1;"><g transform="translate(69.140828, 24.677421)"><path style="stroke:none" d="M 2.71875 0.28125 C 1.976562 0.28125 1.40625 -0.03125 1 -0.65625 C 0.59375 -1.289062 0.390625 -2.21875 0.390625 -3.4375 C 0.390625 -4.601562 0.550781 -5.769531 0.875 -6.9375 C 1.207031 -8.101562 1.65625 -9.210938 2.21875 -10.265625 C 2.789062 -11.328125 3.4375 -12.265625 4.15625 -13.078125 C 4.882812 -13.890625 5.648438 -14.535156 6.453125 -15.015625 C 7.253906 -15.492188 8.050781 -15.734375 8.84375 -15.734375 C 9.226562 -15.734375 9.59375 -15.65625 9.9375 -15.5 C 10.28125 -15.34375 10.566406 -15.101562 10.796875 -14.78125 C 10.910156 -14.601562 11.03125 -14.515625 11.15625 -14.515625 C 11.28125 -14.515625 11.398438 -14.601562 11.515625 -14.78125 C 11.742188 -15.101562 11.925781 -15.3125 12.0625 -15.40625 C 12.207031 -15.5 12.34375 -15.546875 12.46875 -15.546875 C 12.726562 -15.546875 12.828125 -15.40625 12.765625 -15.125 L 10.0625 -3.4375 C 9.757812 -2.125 9.960938 -1.46875 10.671875 -1.46875 C 11.140625 -1.46875 11.5625 -1.78125 11.9375 -2.40625 C 12.3125 -3.039062 12.691406 -4.015625 13.078125 -5.328125 C 13.140625 -5.554688 13.269531 -5.671875 13.46875 -5.671875 C 13.613281 -5.671875 13.707031 -5.609375 13.75 -5.484375 C 13.789062 -5.359375 13.789062 -5.21875 13.75 -5.0625 C 13.363281 -3.144531 12.84375 -1.773438 12.1875 -0.953125 C 11.539062 -0.128906 10.757812 0.28125 9.84375 0.28125 C 9.050781 0.28125 8.488281 -0.0507812 8.15625 -0.71875 C 7.820312 -1.394531 7.785156 -2.3125 8.046875 -3.46875 L 8.4375 -5.15625 C 8.476562 -5.289062 8.453125 -5.367188 8.359375 -5.390625 C 8.273438 -5.410156 8.203125 -5.363281 8.140625 -5.25 C 7.023438 -3.195312 6.035156 -1.757812 5.171875 -0.9375 C 4.304688 -0.125 3.488281 0.28125 2.71875 0.28125 Z M 3.46875 -1.28125 C 3.957031 -1.28125 4.492188 -1.570312 5.078125 -2.15625 C 5.671875 -2.75 6.257812 -3.515625 6.84375 -4.453125 C 7.425781 -5.390625 7.957031 -6.394531 8.4375 -7.46875 C 8.925781 -8.539062 9.316406 -9.578125 9.609375 -10.578125 C 9.910156 -11.578125 10.0625 -12.421875 10.0625 -13.109375 C 10.0625 -14.347656 9.625 -14.96875 8.75 -14.96875 C 8.21875 -14.96875 7.65625 -14.726562 7.0625 -14.25 C 6.476562 -13.769531 5.914062 -13.125 5.375 -12.3125 C 4.84375 -11.5 4.359375 -10.578125 3.921875 -9.546875 C 3.484375 -8.523438 3.128906 -7.457031 2.859375 -6.34375 C 2.597656 -5.238281 2.46875 -4.160156 2.46875 -3.109375 C 2.46875 -2.398438 2.550781 -1.914062 2.71875 -1.65625 C 2.894531 -1.40625 3.144531 -1.28125 3.46875 -1.28125 Z M 3.46875 -1.28125 "/></g></g><g style="fill:#ffffff;fill-opacity:1;"><g transform="translate(83.590197, 24.677421)"><path style="stroke:none" d="M 6.21875 -18.4375 C 5.832031 -18.4375 5.507812 -18.570312 5.25 -18.84375 C 5 -19.125 4.875 -19.457031 4.875 -19.84375 C 4.875 -20.394531 5.039062 -20.832031 5.375 -21.15625 C 5.71875 -21.476562 6.101562 -21.640625 6.53125 -21.640625 C 6.9375 -21.640625 7.273438 -21.507812 7.546875 -21.25 C 7.816406 -21 7.953125 -20.671875 7.953125 -20.265625 C 7.953125 -19.703125 7.78125 -19.253906 7.4375 -18.921875 C 7.09375 -18.597656 6.6875 -18.4375 6.21875 -18.4375 Z M 3.71875 0.3125 C 3.050781 0.3125 2.570312 0.0625 2.28125 -0.4375 C 2 -0.9375 1.988281 -1.753906 2.25 -2.890625 L 4.515625 -12.5625 C 4.617188 -13.007812 4.632812 -13.359375 4.5625 -13.609375 C 4.488281 -13.867188 4.300781 -14 4 -14 C 3.625 -14 3.21875 -13.726562 2.78125 -13.1875 C 2.351562 -12.644531 1.863281 -11.625 1.3125 -10.125 C 1.226562 -9.851562 1.085938 -9.71875 0.890625 -9.71875 C 0.578125 -9.71875 0.492188 -9.898438 0.640625 -10.265625 C 1.085938 -11.671875 1.554688 -12.769531 2.046875 -13.5625 C 2.546875 -14.351562 3.050781 -14.910156 3.5625 -15.234375 C 4.070312 -15.566406 4.539062 -15.734375 4.96875 -15.734375 C 5.675781 -15.734375 6.171875 -15.484375 6.453125 -14.984375 C 6.742188 -14.484375 6.757812 -13.664062 6.5 -12.53125 L 4.234375 -2.859375 C 4.128906 -2.410156 4.113281 -2.0625 4.1875 -1.8125 C 4.257812 -1.5625 4.445312 -1.4375 4.75 -1.4375 C 5.113281 -1.4375 5.515625 -1.703125 5.953125 -2.234375 C 6.390625 -2.773438 6.882812 -3.796875 7.4375 -5.296875 C 7.519531 -5.566406 7.660156 -5.703125 7.859375 -5.703125 C 8.171875 -5.703125 8.253906 -5.519531 8.109375 -5.15625 C 7.679688 -3.769531 7.207031 -2.675781 6.6875 -1.875 C 6.164062 -1.070312 5.648438 -0.503906 5.140625 -0.171875 C 4.640625 0.148438 4.164062 0.3125 3.71875 0.3125 Z M 3.71875 0.3125 "/></g></g></g></svg>