<svg xmlns="http://www.w3.org/2000/svg" xmlns:xlink="http://www.w3.org/1999/xlink" width="153" zoomAndPan="magnify" viewBox="0 0 114.75 30.000001" height="40" preserveAspectRatio="xMidYMid meet" version="1.2"><defs><clipPath id="7a6e4a8975"><path d="M 1.730469 2 L 112.777344 2 L 112.777344 27 L 1.730469 27 Z M 1.730469 2 "/></clipPath><clipPath id="b85ba2910f"><rect x="0" width="112" y="0" height="25"/></clipPath></defs><g id="0986e39213"><g clip-rule="nonzero" clip-path="url(#7a6e4a8975)"><g transform="matrix(1,0,0,1,1,2)"><g clip-path="url(#b85ba2910f)"><g style="fill:#ffffff;fill-opacity:1;"><g transform="translate(0.743545, 18.657212)"><path style="stroke:none" d="M 4.46875 0.171875 C 3.382812 0.171875 2.53125 -0.253906 1.90625 -1.109375 C 1.289062 -1.960938 0.984375 -3.191406 0.984375 -4.796875 C 0.984375 -5.460938 1.066406 -6.195312 1.234375 -7 C 1.410156 -7.8125 1.671875 -8.617188 2.015625 -9.421875 C 2.359375 -10.222656 2.789062 -10.953125 3.3125 -11.609375 C 3.832031 -12.273438 4.445312 -12.8125 5.15625 -13.21875 C 5.863281 -13.625 6.65625 -13.828125 7.53125 -13.828125 C 8.09375 -13.828125 8.566406 -13.78125 8.953125 -13.6875 C 9.347656 -13.59375 9.675781 -13.46875 9.9375 -13.3125 C 10.050781 -13.25 10.09375 -13.117188 10.0625 -12.921875 L 9.484375 -10.03125 C 9.453125 -9.820312 9.351562 -9.71875 9.1875 -9.71875 C 9.03125 -9.71875 8.953125 -9.800781 8.953125 -9.96875 L 8.9375 -10.515625 C 8.894531 -11.597656 8.757812 -12.335938 8.53125 -12.734375 C 8.300781 -13.128906 7.9375 -13.328125 7.4375 -13.328125 C 6.863281 -13.328125 6.335938 -13.171875 5.859375 -12.859375 C 5.390625 -12.546875 4.960938 -12.125 4.578125 -11.59375 C 4.191406 -11.0625 3.851562 -10.472656 3.5625 -9.828125 C 3.28125 -9.179688 3.046875 -8.523438 2.859375 -7.859375 C 2.679688 -7.191406 2.546875 -6.5625 2.453125 -5.96875 C 2.359375 -5.375 2.3125 -4.867188 2.3125 -4.453125 C 2.3125 -3.078125 2.515625 -2.046875 2.921875 -1.359375 C 3.335938 -0.671875 3.875 -0.328125 4.53125 -0.328125 C 4.925781 -0.328125 5.28125 -0.441406 5.59375 -0.671875 C 5.914062 -0.898438 6.144531 -1.328125 6.28125 -1.953125 L 7.234375 -6.09375 C 7.296875 -6.351562 7.304688 -6.535156 7.265625 -6.640625 C 7.222656 -6.742188 7.054688 -6.8125 6.765625 -6.84375 L 6.09375 -6.90625 C 5.9375 -6.925781 5.859375 -7 5.859375 -7.125 C 5.859375 -7.269531 5.96875 -7.34375 6.1875 -7.34375 L 9.625 -7.34375 C 9.78125 -7.34375 9.859375 -7.28125 9.859375 -7.15625 C 9.859375 -7.019531 9.765625 -6.9375 9.578125 -6.90625 L 9.296875 -6.875 C 9.015625 -6.832031 8.832031 -6.753906 8.75 -6.640625 C 8.675781 -6.535156 8.609375 -6.347656 8.546875 -6.078125 L 7.4375 -1.328125 C 7.414062 -1.191406 7.347656 -1.054688 7.234375 -0.921875 C 7.128906 -0.796875 6.960938 -0.664062 6.734375 -0.53125 C 6.421875 -0.34375 6.082031 -0.175781 5.71875 -0.03125 C 5.351562 0.101562 4.9375 0.171875 4.46875 0.171875 Z M 4.46875 0.171875 "/></g></g><g style="fill:#ffffff;fill-opacity:1;"><g transform="translate(10.473759, 18.657212)"><path style="stroke:none" d="M 1.21875 0 C 1.039062 0 0.96875 -0.0820312 1 -0.25 L 2.796875 -7.796875 C 2.859375 -8.078125 2.867188 -8.296875 2.828125 -8.453125 C 2.785156 -8.609375 2.671875 -8.6875 2.484375 -8.6875 C 2.253906 -8.6875 2.003906 -8.519531 1.734375 -8.1875 C 1.460938 -7.851562 1.15625 -7.21875 0.8125 -6.28125 C 0.757812 -6.125 0.671875 -6.046875 0.546875 -6.046875 C 0.359375 -6.046875 0.304688 -6.15625 0.390625 -6.375 C 0.671875 -7.25 0.96875 -7.929688 1.28125 -8.421875 C 1.59375 -8.921875 1.90625 -9.269531 2.21875 -9.46875 C 2.53125 -9.664062 2.820312 -9.765625 3.09375 -9.765625 C 3.507812 -9.765625 3.800781 -9.609375 3.96875 -9.296875 C 4.144531 -8.992188 4.15625 -8.488281 4 -7.78125 L 3.78125 -6.890625 C 3.769531 -6.804688 3.789062 -6.753906 3.84375 -6.734375 C 3.894531 -6.722656 3.941406 -6.757812 3.984375 -6.84375 C 4.460938 -7.9375 4.894531 -8.695312 5.28125 -9.125 C 5.675781 -9.550781 6.125 -9.765625 6.625 -9.765625 C 6.96875 -9.765625 7.222656 -9.671875 7.390625 -9.484375 C 7.566406 -9.304688 7.65625 -9.0625 7.65625 -8.75 C 7.65625 -8.4375 7.578125 -8.179688 7.421875 -7.984375 C 7.273438 -7.796875 7.082031 -7.703125 6.84375 -7.703125 C 6.632812 -7.703125 6.484375 -7.753906 6.390625 -7.859375 C 6.304688 -7.960938 6.242188 -8.078125 6.203125 -8.203125 C 6.160156 -8.335938 6.113281 -8.457031 6.0625 -8.5625 C 6.007812 -8.664062 5.925781 -8.71875 5.8125 -8.71875 C 5.625 -8.71875 5.378906 -8.472656 5.078125 -7.984375 C 4.773438 -7.503906 4.445312 -6.859375 4.09375 -6.046875 C 3.75 -5.234375 3.414062 -4.320312 3.09375 -3.3125 C 2.769531 -2.300781 2.488281 -1.265625 2.25 -0.203125 C 2.21875 -0.0664062 2.128906 0 1.984375 0 Z M 1.21875 0 "/></g></g><g style="fill:#ffffff;fill-opacity:1;"><g transform="translate(17.440144, 18.657212)"><path style="stroke:none" d="M 2.171875 0.171875 C 1.710938 0.171875 1.394531 -0.0351562 1.21875 -0.453125 C 1.050781 -0.878906 1.0625 -1.441406 1.25 -2.140625 L 2.75 -7.625 C 2.84375 -8 2.863281 -8.285156 2.8125 -8.484375 C 2.769531 -8.679688 2.660156 -8.78125 2.484375 -8.78125 C 2.191406 -8.78125 1.894531 -8.5625 1.59375 -8.125 C 1.300781 -7.6875 1.046875 -7.070312 0.828125 -6.28125 C 0.796875 -6.144531 0.71875 -6.078125 0.59375 -6.078125 C 0.414062 -6.078125 0.359375 -6.203125 0.421875 -6.453125 C 0.710938 -7.515625 1.09375 -8.332031 1.5625 -8.90625 C 2.03125 -9.476562 2.550781 -9.765625 3.125 -9.765625 C 3.582031 -9.765625 3.882812 -9.554688 4.03125 -9.140625 C 4.1875 -8.722656 4.160156 -8.15625 3.953125 -7.4375 L 2.4375 -1.953125 C 2.195312 -1.078125 2.28125 -0.640625 2.6875 -0.640625 C 2.9375 -0.640625 3.222656 -0.8125 3.546875 -1.15625 C 3.878906 -1.5 4.222656 -1.96875 4.578125 -2.5625 C 4.941406 -3.15625 5.300781 -3.828125 5.65625 -4.578125 C 6.007812 -5.335938 6.332031 -6.132812 6.625 -6.96875 C 6.914062 -7.800781 7.15625 -8.628906 7.34375 -9.453125 C 7.382812 -9.585938 7.472656 -9.65625 7.609375 -9.65625 L 8.375 -9.65625 C 8.550781 -9.65625 8.617188 -9.570312 8.578125 -9.40625 L 6.796875 -1.796875 C 6.660156 -1.203125 6.769531 -0.90625 7.125 -0.90625 C 7.65625 -0.90625 8.207031 -1.707031 8.78125 -3.3125 C 8.832031 -3.476562 8.921875 -3.5625 9.046875 -3.5625 C 9.128906 -3.5625 9.1875 -3.53125 9.21875 -3.46875 C 9.25 -3.40625 9.242188 -3.320312 9.203125 -3.21875 C 8.859375 -2.144531 8.453125 -1.3125 7.984375 -0.71875 C 7.523438 -0.125 7.035156 0.171875 6.515625 0.171875 C 5.609375 0.171875 5.304688 -0.488281 5.609375 -1.8125 L 6.09375 -3.921875 C 6.125 -4.003906 6.109375 -4.050781 6.046875 -4.0625 C 5.992188 -4.082031 5.945312 -4.054688 5.90625 -3.984375 C 5.175781 -2.460938 4.5 -1.390625 3.875 -0.765625 C 3.257812 -0.140625 2.691406 0.171875 2.171875 0.171875 Z M 2.171875 0.171875 "/></g></g><g style="fill:#ffffff;fill-opacity:1;"><g transform="translate(27.056774, 18.657212)"><path style="stroke:none" d="M 11.1875 0.171875 C 10.738281 0.171875 10.398438 -0.015625 10.171875 -0.390625 C 9.941406 -0.773438 9.925781 -1.363281 10.125 -2.15625 L 11.59375 -7.65625 C 11.726562 -8.144531 11.75 -8.484375 11.65625 -8.671875 C 11.5625 -8.859375 11.425781 -8.953125 11.25 -8.953125 C 11 -8.953125 10.707031 -8.78125 10.375 -8.4375 C 10.050781 -8.09375 9.707031 -7.625 9.34375 -7.03125 C 8.988281 -6.4375 8.640625 -5.757812 8.296875 -5 C 7.953125 -4.238281 7.632812 -3.445312 7.34375 -2.625 C 7.050781 -1.8125 6.8125 -1.003906 6.625 -0.203125 C 6.59375 -0.0664062 6.503906 0 6.359375 0 L 5.625 0 C 5.445312 0 5.378906 -0.0820312 5.421875 -0.25 L 7.15625 -7.65625 C 7.269531 -8.144531 7.285156 -8.484375 7.203125 -8.671875 C 7.117188 -8.859375 6.988281 -8.953125 6.8125 -8.953125 C 6.570312 -8.953125 6.285156 -8.78125 5.953125 -8.4375 C 5.628906 -8.09375 5.289062 -7.625 4.9375 -7.03125 C 4.582031 -6.4375 4.234375 -5.757812 3.890625 -5 C 3.554688 -4.238281 3.242188 -3.445312 2.953125 -2.625 C 2.660156 -1.8125 2.425781 -1.003906 2.25 -0.203125 C 2.21875 -0.0664062 2.128906 0 1.984375 0 L 1.21875 0 C 1.039062 0 0.96875 -0.0820312 1 -0.25 L 2.796875 -7.796875 C 2.859375 -8.078125 2.867188 -8.296875 2.828125 -8.453125 C 2.785156 -8.609375 2.671875 -8.6875 2.484375 -8.6875 C 2.253906 -8.6875 2.003906 -8.519531 1.734375 -8.1875 C 1.460938 -7.851562 1.15625 -7.21875 0.8125 -6.28125 C 0.757812 -6.125 0.671875 -6.046875 0.546875 -6.046875 C 0.359375 -6.046875 0.304688 -6.15625 0.390625 -6.375 C 0.671875 -7.25 0.96875 -7.929688 1.28125 -8.421875 C 1.59375 -8.921875 1.90625 -9.269531 2.21875 -9.46875 C 2.53125 -9.664062 2.820312 -9.765625 3.09375 -9.765625 C 3.507812 -9.765625 3.800781 -9.609375 3.96875 -9.296875 C 4.144531 -8.992188 4.15625 -8.488281 4 -7.78125 L 3.515625 -5.734375 C 3.503906 -5.648438 3.523438 -5.597656 3.578125 -5.578125 C 3.628906 -5.566406 3.675781 -5.601562 3.71875 -5.6875 C 4.445312 -7.195312 5.109375 -8.253906 5.703125 -8.859375 C 6.296875 -9.460938 6.835938 -9.765625 7.328125 -9.765625 C 7.796875 -9.765625 8.125 -9.578125 8.3125 -9.203125 C 8.507812 -8.828125 8.519531 -8.25 8.34375 -7.46875 L 7.953125 -5.734375 C 7.941406 -5.648438 7.960938 -5.597656 8.015625 -5.578125 C 8.066406 -5.566406 8.109375 -5.601562 8.140625 -5.6875 C 8.617188 -6.707031 9.066406 -7.515625 9.484375 -8.109375 C 9.910156 -8.710938 10.3125 -9.140625 10.6875 -9.390625 C 11.070312 -9.640625 11.429688 -9.765625 11.765625 -9.765625 C 12.222656 -9.765625 12.5625 -9.578125 12.78125 -9.203125 C 13 -8.828125 13 -8.25 12.78125 -7.46875 L 11.34375 -1.96875 C 11.257812 -1.613281 11.253906 -1.347656 11.328125 -1.171875 C 11.398438 -0.992188 11.535156 -0.90625 11.734375 -0.90625 C 11.992188 -0.90625 12.242188 -1.070312 12.484375 -1.40625 C 12.734375 -1.738281 12.988281 -2.375 13.25 -3.3125 C 13.289062 -3.445312 13.375 -3.515625 13.5 -3.515625 C 13.601562 -3.515625 13.660156 -3.476562 13.671875 -3.40625 C 13.691406 -3.332031 13.691406 -3.242188 13.671875 -3.140625 C 13.429688 -2.285156 13.171875 -1.613281 12.890625 -1.125 C 12.617188 -0.632812 12.335938 -0.296875 12.046875 -0.109375 C 11.765625 0.078125 11.476562 0.171875 11.1875 0.171875 Z M 11.1875 0.171875 "/></g></g><g style="fill:#ffffff;fill-opacity:1;"><g transform="translate(41.159914, 18.657212)"><path style="stroke:none" d="M 11.1875 0.171875 C 10.738281 0.171875 10.398438 -0.015625 10.171875 -0.390625 C 9.941406 -0.773438 9.925781 -1.363281 10.125 -2.15625 L 11.59375 -7.65625 C 11.726562 -8.144531 11.75 -8.484375 11.65625 -8.671875 C 11.5625 -8.859375 11.425781 -8.953125 11.25 -8.953125 C 11 -8.953125 10.707031 -8.78125 10.375 -8.4375 C 10.050781 -8.09375 9.707031 -7.625 9.34375 -7.03125 C 8.988281 -6.4375 8.640625 -5.757812 8.296875 -5 C 7.953125 -4.238281 7.632812 -3.445312 7.34375 -2.625 C 7.050781 -1.8125 6.8125 -1.003906 6.625 -0.203125 C 6.59375 -0.0664062 6.503906 0 6.359375 0 L 5.625 0 C 5.445312 0 5.378906 -0.0820312 5.421875 -0.25 L 7.15625 -7.65625 C 7.269531 -8.144531 7.285156 -8.484375 7.203125 -8.671875 C 7.117188 -8.859375 6.988281 -8.953125 6.8125 -8.953125 C 6.570312 -8.953125 6.285156 -8.78125 5.953125 -8.4375 C 5.628906 -8.09375 5.289062 -7.625 4.9375 -7.03125 C 4.582031 -6.4375 4.234375 -5.757812 3.890625 -5 C 3.554688 -4.238281 3.242188 -3.445312 2.953125 -2.625 C 2.660156 -1.8125 2.425781 -1.003906 2.25 -0.203125 C 2.21875 -0.0664062 2.128906 0 1.984375 0 L 1.21875 0 C 1.039062 0 0.96875 -0.0820312 1 -0.25 L 2.796875 -7.796875 C 2.859375 -8.078125 2.867188 -8.296875 2.828125 -8.453125 C 2.785156 -8.609375 2.671875 -8.6875 2.484375 -8.6875 C 2.253906 -8.6875 2.003906 -8.519531 1.734375 -8.1875 C 1.460938 -7.851562 1.15625 -7.21875 0.8125 -6.28125 C 0.757812 -6.125 0.671875 -6.046875 0.546875 -6.046875 C 0.359375 -6.046875 0.304688 -6.15625 0.390625 -6.375 C 0.671875 -7.25 0.96875 -7.929688 1.28125 -8.421875 C 1.59375 -8.921875 1.90625 -9.269531 2.21875 -9.46875 C 2.53125 -9.664062 2.820312 -9.765625 3.09375 -9.765625 C 3.507812 -9.765625 3.800781 -9.609375 3.96875 -9.296875 C 4.144531 -8.992188 4.15625 -8.488281 4 -7.78125 L 3.515625 -5.734375 C 3.503906 -5.648438 3.523438 -5.597656 3.578125 -5.578125 C 3.628906 -5.566406 3.675781 -5.601562 3.71875 -5.6875 C 4.445312 -7.195312 5.109375 -8.253906 5.703125 -8.859375 C 6.296875 -9.460938 6.835938 -9.765625 7.328125 -9.765625 C 7.796875 -9.765625 8.125 -9.578125 8.3125 -9.203125 C 8.507812 -8.828125 8.519531 -8.25 8.34375 -7.46875 L 7.953125 -5.734375 C 7.941406 -5.648438 7.960938 -5.597656 8.015625 -5.578125 C 8.066406 -5.566406 8.109375 -5.601562 8.140625 -5.6875 C 8.617188 -6.707031 9.066406 -7.515625 9.484375 -8.109375 C 9.910156 -8.710938 10.3125 -9.140625 10.6875 -9.390625 C 11.070312 -9.640625 11.429688 -9.765625 11.765625 -9.765625 C 12.222656 -9.765625 12.5625 -9.578125 12.78125 -9.203125 C 13 -8.828125 13 -8.25 12.78125 -7.46875 L 11.34375 -1.96875 C 11.257812 -1.613281 11.253906 -1.347656 11.328125 -1.171875 C 11.398438 -0.992188 11.535156 -0.90625 11.734375 -0.90625 C 11.992188 -0.90625 12.242188 -1.070312 12.484375 -1.40625 C 12.734375 -1.738281 12.988281 -2.375 13.25 -3.3125 C 13.289062 -3.445312 13.375 -3.515625 13.5 -3.515625 C 13.601562 -3.515625 13.660156 -3.476562 13.671875 -3.40625 C 13.691406 -3.332031 13.691406 -3.242188 13.671875 -3.140625 C 13.429688 -2.285156 13.171875 -1.613281 12.890625 -1.125 C 12.617188 -0.632812 12.335938 -0.296875 12.046875 -0.109375 C 11.765625 0.078125 11.476562 0.171875 11.1875 0.171875 Z M 11.1875 0.171875 "/></g></g><g style="fill:#ffffff;fill-opacity:1;"><g transform="translate(55.263054, 18.657212)"><path style="stroke:none" d="M 1.6875 0.171875 C 1.226562 0.171875 0.875 -0.0195312 0.625 -0.40625 C 0.375 -0.800781 0.25 -1.378906 0.25 -2.140625 C 0.25 -2.859375 0.347656 -3.578125 0.546875 -4.296875 C 0.753906 -5.023438 1.03125 -5.71875 1.375 -6.375 C 1.726562 -7.03125 2.128906 -7.609375 2.578125 -8.109375 C 3.023438 -8.617188 3.5 -9.019531 4 -9.3125 C 4.5 -9.613281 4.992188 -9.765625 5.484375 -9.765625 C 5.734375 -9.765625 5.960938 -9.71875 6.171875 -9.625 C 6.390625 -9.53125 6.566406 -9.382812 6.703125 -9.1875 C 6.773438 -9.070312 6.851562 -9.015625 6.9375 -9.015625 C 7.007812 -9.015625 7.082031 -9.070312 7.15625 -9.1875 C 7.289062 -9.382812 7.398438 -9.507812 7.484375 -9.5625 C 7.578125 -9.625 7.664062 -9.65625 7.75 -9.65625 C 7.90625 -9.65625 7.96875 -9.566406 7.9375 -9.390625 L 6.25 -2.140625 C 6.0625 -1.316406 6.1875 -0.90625 6.625 -0.90625 C 6.914062 -0.90625 7.175781 -1.097656 7.40625 -1.484375 C 7.644531 -1.878906 7.882812 -2.488281 8.125 -3.3125 C 8.164062 -3.445312 8.25 -3.515625 8.375 -3.515625 C 8.457031 -3.515625 8.507812 -3.476562 8.53125 -3.40625 C 8.5625 -3.332031 8.566406 -3.242188 8.546875 -3.140625 C 8.304688 -1.953125 7.984375 -1.101562 7.578125 -0.59375 C 7.171875 -0.0820312 6.679688 0.171875 6.109375 0.171875 C 5.617188 0.171875 5.269531 -0.0351562 5.0625 -0.453125 C 4.851562 -0.867188 4.832031 -1.4375 5 -2.15625 L 5.25 -3.203125 C 5.269531 -3.285156 5.25 -3.332031 5.1875 -3.34375 C 5.132812 -3.363281 5.09375 -3.332031 5.0625 -3.25 C 4.363281 -1.976562 3.742188 -1.085938 3.203125 -0.578125 C 2.671875 -0.078125 2.164062 0.171875 1.6875 0.171875 Z M 2.15625 -0.796875 C 2.457031 -0.796875 2.789062 -0.976562 3.15625 -1.34375 C 3.53125 -1.707031 3.894531 -2.179688 4.25 -2.765625 C 4.613281 -3.347656 4.945312 -3.972656 5.25 -4.640625 C 5.550781 -5.304688 5.789062 -5.945312 5.96875 -6.5625 C 6.15625 -7.1875 6.25 -7.710938 6.25 -8.140625 C 6.25 -8.910156 5.976562 -9.296875 5.4375 -9.296875 C 5.101562 -9.296875 4.753906 -9.144531 4.390625 -8.84375 C 4.023438 -8.550781 3.675781 -8.148438 3.34375 -7.640625 C 3.007812 -7.140625 2.707031 -6.570312 2.4375 -5.9375 C 2.164062 -5.300781 1.945312 -4.640625 1.78125 -3.953125 C 1.613281 -3.265625 1.53125 -2.59375 1.53125 -1.9375 C 1.53125 -1.488281 1.582031 -1.1875 1.6875 -1.03125 C 1.800781 -0.875 1.957031 -0.796875 2.15625 -0.796875 Z M 2.15625 -0.796875 "/></g></g><g style="fill:#ffffff;fill-opacity:1;"><g transform="translate(64.236061, 18.657212)"><path style="stroke:none" d="M 1 -0.25 L 2.796875 -7.796875 C 2.859375 -8.078125 2.867188 -8.296875 2.828125 -8.453125 C 2.785156 -8.609375 2.671875 -8.6875 2.484375 -8.6875 C 2.253906 -8.6875 2.003906 -8.519531 1.734375 -8.1875 C 1.460938 -7.851562 1.15625 -7.21875 0.8125 -6.28125 C 0.757812 -6.125 0.671875 -6.046875 0.546875 -6.046875 C 0.359375 -6.046875 0.304688 -6.15625 0.390625 -6.375 C 0.671875 -7.25 0.96875 -7.929688 1.28125 -8.421875 C 1.59375 -8.921875 1.90625 -9.269531 2.21875 -9.46875 C 2.53125 -9.664062 2.820312 -9.765625 3.09375 -9.765625 C 3.507812 -9.765625 3.800781 -9.609375 3.96875 -9.296875 C 4.144531 -8.992188 4.15625 -8.488281 4 -7.78125 L 3.515625 -5.734375 C 3.503906 -5.648438 3.523438 -5.597656 3.578125 -5.578125 C 3.628906 -5.566406 3.675781 -5.601562 3.71875 -5.6875 C 4.207031 -6.707031 4.675781 -7.515625 5.125 -8.109375 C 5.582031 -8.710938 6.015625 -9.140625 6.421875 -9.390625 C 6.828125 -9.640625 7.191406 -9.765625 7.515625 -9.765625 C 7.984375 -9.765625 8.320312 -9.578125 8.53125 -9.203125 C 8.75 -8.828125 8.753906 -8.25 8.546875 -7.46875 L 7.109375 -1.96875 C 7.015625 -1.613281 7.003906 -1.347656 7.078125 -1.171875 C 7.160156 -0.992188 7.300781 -0.90625 7.5 -0.90625 C 7.75 -0.90625 7.992188 -1.070312 8.234375 -1.40625 C 8.484375 -1.738281 8.742188 -2.375 9.015625 -3.3125 C 9.054688 -3.445312 9.140625 -3.515625 9.265625 -3.515625 C 9.359375 -3.515625 9.414062 -3.476562 9.4375 -3.40625 C 9.457031 -3.332031 9.457031 -3.242188 9.4375 -3.140625 C 9.195312 -2.285156 8.9375 -1.613281 8.65625 -1.125 C 8.375 -0.632812 8.09375 -0.296875 7.8125 -0.109375 C 7.53125 0.078125 7.242188 0.171875 6.953125 0.171875 C 6.492188 0.171875 6.148438 -0.015625 5.921875 -0.390625 C 5.703125 -0.773438 5.691406 -1.363281 5.890625 -2.15625 L 7.34375 -7.65625 C 7.488281 -8.144531 7.507812 -8.484375 7.40625 -8.671875 C 7.3125 -8.859375 7.175781 -8.953125 7 -8.953125 C 6.726562 -8.953125 6.414062 -8.78125 6.0625 -8.4375 C 5.707031 -8.09375 5.347656 -7.617188 4.984375 -7.015625 C 4.617188 -6.410156 4.257812 -5.726562 3.90625 -4.96875 C 3.550781 -4.21875 3.226562 -3.429688 2.9375 -2.609375 C 2.65625 -1.785156 2.425781 -0.984375 2.25 -0.203125 C 2.21875 -0.0664062 2.128906 0 1.984375 0 L 1.21875 0 C 1.039062 0 0.96875 -0.0820312 1 -0.25 Z M 1 -0.25 "/></g></g><g style="fill:#ffffff;fill-opacity:1;"><g transform="translate(74.098788, 18.657212)"><path style="stroke:none" d=""/></g></g><g style="fill:#ffffff;fill-opacity:1;"><g transform="translate(77.316955, 18.657212)"><path style="stroke:none" d="M -0.390625 0 C -0.503906 0 -0.582031 -0.0195312 -0.625 -0.0625 C -0.664062 -0.101562 -0.6875 -0.148438 -0.6875 -0.203125 C -0.6875 -0.347656 -0.570312 -0.4375 -0.34375 -0.46875 L -0.03125 -0.53125 C 0.394531 -0.601562 0.742188 -0.722656 1.015625 -0.890625 C 1.296875 -1.066406 1.554688 -1.34375 1.796875 -1.71875 L 4.734375 -6.234375 C 4.835938 -6.378906 4.910156 -6.523438 4.953125 -6.671875 C 5.003906 -6.816406 5.007812 -7.007812 4.96875 -7.25 L 3.859375 -12.359375 C 3.804688 -12.648438 3.71875 -12.847656 3.59375 -12.953125 C 3.46875 -13.054688 3.320312 -13.117188 3.15625 -13.140625 L 2.828125 -13.203125 C 2.617188 -13.234375 2.535156 -13.316406 2.578125 -13.453125 C 2.597656 -13.578125 2.71875 -13.640625 2.9375 -13.640625 L 6.21875 -13.640625 C 6.4375 -13.640625 6.535156 -13.578125 6.515625 -13.453125 C 6.472656 -13.316406 6.347656 -13.234375 6.140625 -13.203125 L 5.75 -13.140625 C 5.53125 -13.097656 5.367188 -13.019531 5.265625 -12.90625 C 5.160156 -12.800781 5.132812 -12.617188 5.1875 -12.359375 L 6.09375 -8.234375 C 6.101562 -8.179688 6.128906 -8.148438 6.171875 -8.140625 C 6.222656 -8.128906 6.273438 -8.15625 6.328125 -8.21875 L 8.921875 -12.171875 C 9.097656 -12.453125 9.1875 -12.65625 9.1875 -12.78125 C 9.195312 -12.914062 9.085938 -13.007812 8.859375 -13.0625 L 8.375 -13.1875 C 8.15625 -13.226562 8.066406 -13.316406 8.109375 -13.453125 C 8.128906 -13.578125 8.253906 -13.640625 8.484375 -13.640625 L 11.421875 -13.640625 C 11.660156 -13.640625 11.753906 -13.5625 11.703125 -13.40625 C 11.679688 -13.28125 11.566406 -13.195312 11.359375 -13.15625 L 11.0625 -13.109375 C 10.726562 -13.046875 10.429688 -12.925781 10.171875 -12.75 C 9.921875 -12.570312 9.664062 -12.289062 9.40625 -11.90625 L 6.640625 -7.703125 C 6.535156 -7.546875 6.460938 -7.378906 6.421875 -7.203125 C 6.378906 -7.035156 6.390625 -6.804688 6.453125 -6.515625 L 7.59375 -1.265625 C 7.65625 -0.960938 7.753906 -0.765625 7.890625 -0.671875 C 8.023438 -0.585938 8.160156 -0.535156 8.296875 -0.515625 L 8.65625 -0.453125 C 8.820312 -0.441406 8.90625 -0.367188 8.90625 -0.234375 C 8.90625 -0.078125 8.773438 0 8.515625 0 L 5.203125 0 C 5.015625 0 4.921875 -0.0664062 4.921875 -0.203125 C 4.921875 -0.328125 5.039062 -0.410156 5.28125 -0.453125 L 5.65625 -0.515625 C 5.882812 -0.546875 6.054688 -0.617188 6.171875 -0.734375 C 6.285156 -0.847656 6.316406 -1.023438 6.265625 -1.265625 L 5.296875 -5.703125 C 5.285156 -5.773438 5.253906 -5.8125 5.203125 -5.8125 C 5.148438 -5.820312 5.101562 -5.796875 5.0625 -5.734375 L 2.3125 -1.453125 C 2.132812 -1.179688 2.039062 -0.976562 2.03125 -0.84375 C 2.03125 -0.707031 2.144531 -0.613281 2.375 -0.5625 L 2.875 -0.453125 C 3.039062 -0.410156 3.125 -0.335938 3.125 -0.234375 C 3.125 -0.078125 3.003906 0 2.765625 0 Z M -0.390625 0 "/></g></g><g style="fill:#ffffff;fill-opacity:1;"><g transform="translate(86.611693, 18.657212)"><path style="stroke:none" d="M 1.765625 -4.90625 C 1.640625 -4.90625 1.585938 -4.96875 1.609375 -5.09375 L 1.671875 -5.359375 C 1.691406 -5.484375 1.769531 -5.546875 1.90625 -5.546875 L 6.5 -5.546875 C 6.625 -5.546875 6.664062 -5.484375 6.625 -5.359375 L 6.578125 -5.09375 C 6.546875 -4.96875 6.46875 -4.90625 6.34375 -4.90625 Z M 1.765625 -4.90625 "/></g></g><g style="fill:#ffffff;fill-opacity:1;"><g transform="translate(94.676038, 18.657212)"><path style="stroke:none" d="M -0.359375 0 C -0.578125 0 -0.6875 -0.0625 -0.6875 -0.1875 C -0.6875 -0.3125 -0.582031 -0.484375 -0.375 -0.703125 L 2.734375 -4.265625 C 3.128906 -4.734375 3.570312 -5.242188 4.0625 -5.796875 C 4.550781 -6.359375 5.007812 -6.953125 5.4375 -7.578125 C 5.875 -8.203125 6.234375 -8.832031 6.515625 -9.46875 C 6.804688 -10.113281 6.953125 -10.742188 6.953125 -11.359375 C 6.953125 -11.898438 6.800781 -12.320312 6.5 -12.625 C 6.207031 -12.925781 5.769531 -13.078125 5.1875 -13.078125 C 4.644531 -13.078125 4.117188 -12.890625 3.609375 -12.515625 C 3.097656 -12.148438 2.675781 -11.519531 2.34375 -10.625 C 2.28125 -10.445312 2.179688 -10.359375 2.046875 -10.359375 C 1.953125 -10.359375 1.882812 -10.394531 1.84375 -10.46875 C 1.8125 -10.550781 1.816406 -10.644531 1.859375 -10.75 C 2.117188 -11.507812 2.441406 -12.113281 2.828125 -12.5625 C 3.222656 -13.007812 3.648438 -13.332031 4.109375 -13.53125 C 4.566406 -13.726562 5.019531 -13.828125 5.46875 -13.828125 C 6.34375 -13.828125 7.035156 -13.59375 7.546875 -13.125 C 8.054688 -12.65625 8.3125 -12.03125 8.3125 -11.25 C 8.3125 -10.582031 8.132812 -9.925781 7.78125 -9.28125 C 7.425781 -8.632812 6.972656 -8 6.421875 -7.375 C 5.878906 -6.757812 5.3125 -6.160156 4.71875 -5.578125 C 4.125 -5.003906 3.59375 -4.453125 3.125 -3.921875 L 1.046875 -1.578125 C 0.941406 -1.460938 0.90625 -1.359375 0.9375 -1.265625 C 0.96875 -1.179688 1.066406 -1.140625 1.234375 -1.140625 L 3.359375 -1.140625 C 3.847656 -1.140625 4.242188 -1.195312 4.546875 -1.3125 C 4.859375 -1.425781 5.128906 -1.625 5.359375 -1.90625 C 5.597656 -2.1875 5.835938 -2.597656 6.078125 -3.140625 L 6.453125 -4 C 6.515625 -4.132812 6.609375 -4.203125 6.734375 -4.203125 C 6.929688 -4.203125 7 -4.085938 6.9375 -3.859375 L 5.90625 -0.359375 C 5.875 -0.222656 5.804688 -0.128906 5.703125 -0.078125 C 5.597656 -0.0234375 5.476562 0 5.34375 0 Z M -0.359375 0 "/></g></g><g style="fill:#ffffff;fill-opacity:1;"><g transform="translate(102.323916, 18.657212)"><path style="stroke:none" d="M 0.25 0.15625 C 0.0195312 0.1875 -0.09375 0.113281 -0.09375 -0.0625 C -0.09375 -0.125 -0.0703125 -0.171875 -0.03125 -0.203125 C 0 -0.242188 0.078125 -0.285156 0.203125 -0.328125 C 2.316406 -0.921875 4.0625 -2.640625 5.4375 -5.484375 C 5.46875 -5.566406 5.460938 -5.628906 5.421875 -5.671875 C 5.390625 -5.710938 5.335938 -5.707031 5.265625 -5.65625 C 4.960938 -5.5 4.582031 -5.421875 4.125 -5.421875 C 3.34375 -5.421875 2.722656 -5.738281 2.265625 -6.375 C 1.804688 -7.007812 1.578125 -7.863281 1.578125 -8.9375 C 1.578125 -9.570312 1.6875 -10.175781 1.90625 -10.75 C 2.132812 -11.332031 2.441406 -11.851562 2.828125 -12.3125 C 3.210938 -12.78125 3.644531 -13.148438 4.125 -13.421875 C 4.613281 -13.691406 5.125 -13.828125 5.65625 -13.828125 C 6.445312 -13.828125 7.0625 -13.5 7.5 -12.84375 C 7.9375 -12.1875 8.15625 -11.257812 8.15625 -10.0625 C 8.15625 -9.175781 8.007812 -8.285156 7.71875 -7.390625 C 7.4375 -6.492188 7.035156 -5.628906 6.515625 -4.796875 C 6.003906 -3.960938 5.414062 -3.203125 4.75 -2.515625 C 4.082031 -1.828125 3.363281 -1.25 2.59375 -0.78125 C 1.820312 -0.3125 1.039062 0 0.25 0.15625 Z M 4.203125 -5.890625 C 4.734375 -5.890625 5.222656 -6.125 5.671875 -6.59375 C 6.117188 -7.0625 6.476562 -7.675781 6.75 -8.4375 C 7.019531 -9.207031 7.15625 -10.035156 7.15625 -10.921875 C 7.15625 -11.691406 7.019531 -12.285156 6.75 -12.703125 C 6.476562 -13.117188 6.113281 -13.328125 5.65625 -13.328125 C 5.28125 -13.328125 4.914062 -13.1875 4.5625 -12.90625 C 4.21875 -12.632812 3.910156 -12.257812 3.640625 -11.78125 C 3.367188 -11.3125 3.15625 -10.78125 3 -10.1875 C 2.851562 -9.59375 2.78125 -8.972656 2.78125 -8.328125 C 2.78125 -7.554688 2.90625 -6.957031 3.15625 -6.53125 C 3.414062 -6.101562 3.765625 -5.890625 4.203125 -5.890625 Z M 4.203125 -5.890625 "/></g></g></g></g></g></g></svg>