<svg xmlns="http://www.w3.org/2000/svg" xmlns:xlink="http://www.w3.org/1999/xlink" width="153" zoomAndPan="magnify" viewBox="0 0 114.75 30.000001" height="40" preserveAspectRatio="xMidYMid meet" version="1.2"><defs><clipPath id="a0bbd54970"><path d="M 14 0 L 100 0 L 100 29.03125 L 14 29.03125 Z M 14 0 "/></clipPath><clipPath id="f27da8e502"><path d="M 0.0390625 0 L 25 0 L 25 27 L 0.0390625 27 Z M 0.0390625 0 "/></clipPath><clipPath id="ceb70a7cf6"><rect x="0" width="86" y="0" height="30"/></clipPath></defs><g id="7bbd3c559c"><g clip-rule="nonzero" clip-path="url(#a0bbd54970)"><g transform="matrix(1,0,0,1,14,0.000000000000005692)"><g clip-path="url(#ceb70a7cf6)"><g clip-rule="nonzero" clip-path="url(#f27da8e502)"><g style="fill:#ffffff;fill-opacity:1;"><g transform="translate(1.789734, 26.583404)"><path style="stroke:none" d="M -0.75 0 C -0.96875 0 -1.113281 -0.0390625 -1.1875 -0.125 C -1.257812 -0.207031 -1.296875 -0.296875 -1.296875 -0.390625 C -1.296875 -0.660156 -1.078125 -0.832031 -0.640625 -0.90625 L -0.078125 -1 C 0.742188 -1.144531 1.414062 -1.378906 1.9375 -1.703125 C 2.46875 -2.023438 2.960938 -2.550781 3.421875 -3.28125 L 9 -11.84375 C 9.1875 -12.125 9.328125 -12.398438 9.421875 -12.671875 C 9.523438 -12.953125 9.523438 -13.320312 9.421875 -13.78125 L 7.34375 -23.5 C 7.25 -24.050781 7.082031 -24.421875 6.84375 -24.609375 C 6.601562 -24.804688 6.328125 -24.925781 6.015625 -24.96875 L 5.359375 -25.078125 C 4.972656 -25.148438 4.816406 -25.304688 4.890625 -25.546875 C 4.941406 -25.785156 5.171875 -25.90625 5.578125 -25.90625 L 11.796875 -25.90625 C 12.234375 -25.90625 12.425781 -25.785156 12.375 -25.546875 C 12.300781 -25.304688 12.0625 -25.148438 11.65625 -25.078125 L 10.9375 -24.96875 C 10.507812 -24.894531 10.195312 -24.75 10 -24.53125 C 9.8125 -24.320312 9.765625 -23.976562 9.859375 -23.5 L 11.59375 -15.65625 C 11.613281 -15.5625 11.664062 -15.5 11.75 -15.46875 C 11.832031 -15.445312 11.921875 -15.492188 12.015625 -15.609375 L 16.953125 -23.140625 C 17.285156 -23.660156 17.457031 -24.046875 17.46875 -24.296875 C 17.476562 -24.554688 17.269531 -24.734375 16.84375 -24.828125 L 15.90625 -25.046875 C 15.5 -25.140625 15.332031 -25.304688 15.40625 -25.546875 C 15.445312 -25.785156 15.6875 -25.90625 16.125 -25.90625 L 21.703125 -25.90625 C 22.148438 -25.90625 22.328125 -25.765625 22.234375 -25.484375 C 22.191406 -25.234375 21.976562 -25.078125 21.59375 -25.015625 L 21.015625 -24.90625 C 20.390625 -24.78125 19.832031 -24.550781 19.34375 -24.21875 C 18.851562 -23.882812 18.367188 -23.359375 17.890625 -22.640625 L 12.625 -14.640625 C 12.414062 -14.328125 12.273438 -14.007812 12.203125 -13.6875 C 12.128906 -13.363281 12.148438 -12.925781 12.265625 -12.375 L 14.4375 -2.40625 C 14.550781 -1.832031 14.734375 -1.460938 14.984375 -1.296875 C 15.234375 -1.128906 15.492188 -1.019531 15.765625 -0.96875 L 16.4375 -0.859375 C 16.75 -0.835938 16.90625 -0.695312 16.90625 -0.4375 C 16.90625 -0.144531 16.664062 0 16.1875 0 L 9.890625 0 C 9.535156 0 9.359375 -0.128906 9.359375 -0.390625 C 9.359375 -0.628906 9.585938 -0.785156 10.046875 -0.859375 L 10.765625 -0.96875 C 11.191406 -1.039062 11.515625 -1.1875 11.734375 -1.40625 C 11.953125 -1.625 12.007812 -1.957031 11.90625 -2.40625 L 10.078125 -10.828125 C 10.054688 -10.972656 9.992188 -11.050781 9.890625 -11.0625 C 9.796875 -11.070312 9.703125 -11.019531 9.609375 -10.90625 L 4.390625 -2.765625 C 4.054688 -2.242188 3.878906 -1.851562 3.859375 -1.59375 C 3.847656 -1.34375 4.0625 -1.171875 4.5 -1.078125 L 5.46875 -0.859375 C 5.78125 -0.785156 5.9375 -0.644531 5.9375 -0.4375 C 5.9375 -0.144531 5.707031 0 5.25 0 Z M -0.75 0 "/></g></g></g><g style="fill:#ffffff;fill-opacity:1;"><g transform="translate(21.405012, 26.583404)"><path style="stroke:none" d="M -0.6875 0 C -1.09375 0 -1.296875 -0.117188 -1.296875 -0.359375 C -1.296875 -0.597656 -1.101562 -0.921875 -0.71875 -1.328125 L 5.1875 -8.09375 C 5.945312 -8.976562 6.789062 -9.953125 7.71875 -11.015625 C 8.644531 -12.085938 9.519531 -13.21875 10.34375 -14.40625 C 11.175781 -15.59375 11.859375 -16.789062 12.390625 -18 C 12.929688 -19.21875 13.203125 -20.414062 13.203125 -21.59375 C 13.203125 -22.625 12.921875 -23.425781 12.359375 -24 C 11.796875 -24.570312 10.960938 -24.859375 9.859375 -24.859375 C 8.828125 -24.859375 7.820312 -24.503906 6.84375 -23.796875 C 5.875 -23.085938 5.082031 -21.882812 4.46875 -20.1875 C 4.34375 -19.851562 4.148438 -19.6875 3.890625 -19.6875 C 3.722656 -19.6875 3.601562 -19.753906 3.53125 -19.890625 C 3.457031 -20.035156 3.457031 -20.21875 3.53125 -20.4375 C 4.03125 -21.875 4.648438 -23.019531 5.390625 -23.875 C 6.140625 -24.726562 6.945312 -25.335938 7.8125 -25.703125 C 8.675781 -26.078125 9.539062 -26.265625 10.40625 -26.265625 C 12.050781 -26.265625 13.359375 -25.820312 14.328125 -24.9375 C 15.304688 -24.050781 15.796875 -22.863281 15.796875 -21.375 C 15.796875 -20.101562 15.457031 -18.851562 14.78125 -17.625 C 14.113281 -16.40625 13.257812 -15.207031 12.21875 -14.03125 C 11.175781 -12.851562 10.085938 -11.710938 8.953125 -10.609375 C 7.828125 -9.503906 6.820312 -8.453125 5.9375 -7.453125 L 1.984375 -2.984375 C 1.785156 -2.765625 1.71875 -2.570312 1.78125 -2.40625 C 1.84375 -2.238281 2.03125 -2.15625 2.34375 -2.15625 L 6.375 -2.15625 C 7.300781 -2.15625 8.054688 -2.265625 8.640625 -2.484375 C 9.234375 -2.703125 9.753906 -3.078125 10.203125 -3.609375 C 10.648438 -4.148438 11.097656 -4.9375 11.546875 -5.96875 L 12.265625 -7.59375 C 12.390625 -7.851562 12.570312 -7.984375 12.8125 -7.984375 C 13.164062 -7.984375 13.285156 -7.769531 13.171875 -7.34375 L 11.234375 -0.6875 C 11.160156 -0.414062 11.023438 -0.234375 10.828125 -0.140625 C 10.640625 -0.046875 10.410156 0 10.140625 0 Z M -0.6875 0 "/></g></g><g style="fill:#ffffff;fill-opacity:1;"><g transform="translate(35.945509, 26.583404)"><path style="stroke:none" d="M 0.46875 0.28125 C 0.03125 0.351562 -0.1875 0.222656 -0.1875 -0.109375 C -0.1875 -0.222656 -0.148438 -0.316406 -0.078125 -0.390625 C -0.00390625 -0.460938 0.148438 -0.535156 0.390625 -0.609375 C 4.398438 -1.734375 7.710938 -5.007812 10.328125 -10.4375 C 10.398438 -10.582031 10.398438 -10.695312 10.328125 -10.78125 C 10.253906 -10.863281 10.144531 -10.859375 10 -10.765625 C 9.425781 -10.453125 8.707031 -10.296875 7.84375 -10.296875 C 6.351562 -10.296875 5.171875 -10.898438 4.296875 -12.109375 C 3.421875 -13.316406 2.984375 -14.941406 2.984375 -16.984375 C 2.984375 -18.179688 3.195312 -19.332031 3.625 -20.4375 C 4.0625 -21.539062 4.644531 -22.53125 5.375 -23.40625 C 6.113281 -24.28125 6.941406 -24.972656 7.859375 -25.484375 C 8.785156 -26.003906 9.753906 -26.265625 10.765625 -26.265625 C 12.242188 -26.265625 13.40625 -25.640625 14.25 -24.390625 C 15.09375 -23.148438 15.515625 -21.390625 15.515625 -19.109375 C 15.515625 -17.429688 15.238281 -15.738281 14.6875 -14.03125 C 14.132812 -12.332031 13.367188 -10.691406 12.390625 -9.109375 C 11.421875 -7.523438 10.300781 -6.078125 9.03125 -4.765625 C 7.757812 -3.460938 6.390625 -2.363281 4.921875 -1.46875 C 3.460938 -0.582031 1.976562 0 0.46875 0.28125 Z M 7.984375 -11.1875 C 8.992188 -11.1875 9.925781 -11.628906 10.78125 -12.515625 C 11.632812 -13.410156 12.316406 -14.585938 12.828125 -16.046875 C 13.347656 -17.515625 13.609375 -19.085938 13.609375 -20.765625 C 13.609375 -22.222656 13.347656 -23.347656 12.828125 -24.140625 C 12.316406 -24.929688 11.628906 -25.328125 10.765625 -25.328125 C 10.046875 -25.328125 9.351562 -25.0625 8.6875 -24.53125 C 8.03125 -24.007812 7.441406 -23.296875 6.921875 -22.390625 C 6.410156 -21.492188 6.007812 -20.484375 5.71875 -19.359375 C 5.4375 -18.234375 5.296875 -17.054688 5.296875 -15.828125 C 5.296875 -14.367188 5.535156 -13.226562 6.015625 -12.40625 C 6.492188 -11.59375 7.148438 -11.1875 7.984375 -11.1875 Z M 7.984375 -11.1875 "/></g></g><g style="fill:#ffffff;fill-opacity:1;"><g transform="translate(49.406271, 26.583404)"><path style="stroke:none" d="M 2.234375 0.328125 C 1.722656 0.328125 1.3125 0.164062 1 -0.15625 C 0.695312 -0.476562 0.546875 -0.882812 0.546875 -1.375 C 0.546875 -1.988281 0.757812 -2.488281 1.1875 -2.875 C 1.613281 -3.257812 2.070312 -3.453125 2.5625 -3.453125 C 3.039062 -3.453125 3.441406 -3.289062 3.765625 -2.96875 C 4.085938 -2.644531 4.25 -2.242188 4.25 -1.765625 C 4.25 -1.140625 4.03125 -0.632812 3.59375 -0.25 C 3.164062 0.132812 2.710938 0.328125 2.234375 0.328125 Z M 2.234375 0.328125 "/></g></g><g style="fill:#ffffff;fill-opacity:1;"><g transform="translate(57.288375, 26.583404)"><path style="stroke:none" d="M 3.203125 0.328125 C 2.335938 0.328125 1.664062 -0.0390625 1.1875 -0.78125 C 0.707031 -1.53125 0.46875 -2.625 0.46875 -4.0625 C 0.46875 -5.4375 0.660156 -6.8125 1.046875 -8.1875 C 1.429688 -9.5625 1.957031 -10.875 2.625 -12.125 C 3.300781 -13.375 4.0625 -14.476562 4.90625 -15.4375 C 5.757812 -16.394531 6.660156 -17.15625 7.609375 -17.71875 C 8.554688 -18.28125 9.5 -18.5625 10.4375 -18.5625 C 10.894531 -18.5625 11.328125 -18.472656 11.734375 -18.296875 C 12.140625 -18.117188 12.472656 -17.835938 12.734375 -17.453125 C 12.878906 -17.234375 13.023438 -17.125 13.171875 -17.125 C 13.316406 -17.125 13.460938 -17.234375 13.609375 -17.453125 C 13.867188 -17.835938 14.082031 -18.082031 14.25 -18.1875 C 14.414062 -18.300781 14.570312 -18.359375 14.71875 -18.359375 C 15.03125 -18.359375 15.148438 -18.1875 15.078125 -17.84375 L 11.875 -4.0625 C 11.507812 -2.507812 11.75 -1.734375 12.59375 -1.734375 C 13.144531 -1.734375 13.640625 -2.101562 14.078125 -2.84375 C 14.523438 -3.582031 14.976562 -4.734375 15.4375 -6.296875 C 15.507812 -6.554688 15.664062 -6.6875 15.90625 -6.6875 C 16.070312 -6.6875 16.175781 -6.613281 16.21875 -6.46875 C 16.269531 -6.332031 16.273438 -6.164062 16.234375 -5.96875 C 15.773438 -3.71875 15.160156 -2.101562 14.390625 -1.125 C 13.628906 -0.15625 12.707031 0.328125 11.625 0.328125 C 10.6875 0.328125 10.019531 -0.0664062 9.625 -0.859375 C 9.226562 -1.648438 9.1875 -2.734375 9.5 -4.109375 L 9.96875 -6.078125 C 10.019531 -6.242188 9.988281 -6.335938 9.875 -6.359375 C 9.769531 -6.390625 9.679688 -6.332031 9.609375 -6.1875 C 8.285156 -3.769531 7.113281 -2.078125 6.09375 -1.109375 C 5.070312 -0.148438 4.109375 0.328125 3.203125 0.328125 Z M 4.109375 -1.515625 C 4.679688 -1.515625 5.3125 -1.859375 6 -2.546875 C 6.695312 -3.242188 7.390625 -4.144531 8.078125 -5.25 C 8.765625 -6.351562 9.394531 -7.539062 9.96875 -8.8125 C 10.539062 -10.082031 11 -11.304688 11.34375 -12.484375 C 11.695312 -13.660156 11.875 -14.65625 11.875 -15.46875 C 11.875 -16.9375 11.359375 -17.671875 10.328125 -17.671875 C 9.703125 -17.671875 9.039062 -17.390625 8.34375 -16.828125 C 7.65625 -16.265625 6.988281 -15.5 6.34375 -14.53125 C 5.707031 -13.570312 5.128906 -12.488281 4.609375 -11.28125 C 4.097656 -10.070312 3.6875 -8.8125 3.375 -7.5 C 3.070312 -6.195312 2.921875 -4.921875 2.921875 -3.671875 C 2.921875 -2.828125 3.019531 -2.253906 3.21875 -1.953125 C 3.425781 -1.660156 3.722656 -1.515625 4.109375 -1.515625 Z M 4.109375 -1.515625 "/></g></g><g style="fill:#ffffff;fill-opacity:1;"><g transform="translate(74.348263, 26.583404)"><path style="stroke:none" d="M 7.34375 -21.765625 C 6.882812 -21.765625 6.503906 -21.925781 6.203125 -22.25 C 5.898438 -22.570312 5.75 -22.960938 5.75 -23.421875 C 5.75 -24.066406 5.945312 -24.582031 6.34375 -24.96875 C 6.738281 -25.351562 7.191406 -25.546875 7.703125 -25.546875 C 8.179688 -25.546875 8.582031 -25.394531 8.90625 -25.09375 C 9.226562 -24.800781 9.390625 -24.410156 9.390625 -23.921875 C 9.390625 -23.253906 9.1875 -22.726562 8.78125 -22.34375 C 8.375 -21.957031 7.894531 -21.765625 7.34375 -21.765625 Z M 4.390625 0.359375 C 3.597656 0.359375 3.03125 0.0664062 2.6875 -0.515625 C 2.351562 -1.109375 2.34375 -2.078125 2.65625 -3.421875 L 5.328125 -14.828125 C 5.441406 -15.347656 5.457031 -15.757812 5.375 -16.0625 C 5.289062 -16.363281 5.070312 -16.515625 4.71875 -16.515625 C 4.28125 -16.515625 3.800781 -16.195312 3.28125 -15.5625 C 2.769531 -14.925781 2.191406 -13.722656 1.546875 -11.953125 C 1.453125 -11.640625 1.285156 -11.484375 1.046875 -11.484375 C 0.679688 -11.484375 0.582031 -11.695312 0.75 -12.125 C 1.28125 -13.78125 1.835938 -15.078125 2.421875 -16.015625 C 3.015625 -16.953125 3.609375 -17.609375 4.203125 -17.984375 C 4.804688 -18.367188 5.359375 -18.5625 5.859375 -18.5625 C 6.703125 -18.5625 7.289062 -18.265625 7.625 -17.671875 C 7.957031 -17.085938 7.972656 -16.128906 7.671875 -14.796875 L 5 -3.375 C 4.882812 -2.851562 4.867188 -2.441406 4.953125 -2.140625 C 5.035156 -1.835938 5.253906 -1.6875 5.609375 -1.6875 C 6.046875 -1.6875 6.519531 -2.003906 7.03125 -2.640625 C 7.550781 -3.273438 8.132812 -4.484375 8.78125 -6.265625 C 8.875 -6.578125 9.039062 -6.734375 9.28125 -6.734375 C 9.644531 -6.734375 9.742188 -6.515625 9.578125 -6.078125 C 9.066406 -4.453125 8.503906 -3.164062 7.890625 -2.21875 C 7.285156 -1.269531 6.679688 -0.601562 6.078125 -0.21875 C 5.484375 0.164062 4.921875 0.359375 4.390625 0.359375 Z M 4.390625 0.359375 "/></g></g></g></g></g></g></svg>